<svg xmlns="http://www.w3.org/2000/svg" viewBox="0 0 64 64" role="img" aria-label="Aylık İçerik Planlayıcı favicon">
  <defs>
    <linearGradient id="bg" x1="0" y1="0" x2="1" y2="1">
      <stop offset="0%" stop-color="#0b1020"/>
      <stop offset="100%" stop-color="#1e3a8a"/>
    </linearGradient>
    <linearGradient id="accent" x1="0" y1="0" x2="1" y2="1">
      <stop offset="0%" stop-color="#fbbf24"/>
      <stop offset="100%" stop-color="#f59e0b"/>
    </linearGradient>
  </defs>
  <rect width="64" height="64" rx="16" fill="url(#bg)"/>
  <rect x="12" y="14" width="40" height="36" rx="9" fill="#ffffff" opacity="0.96"/>
  <rect x="12" y="14" width="40" height="10" rx="9" fill="url(#accent)"/>
  <rect x="19" y="10" width="4" height="10" rx="2" fill="#fff"/>
  <rect x="41" y="10" width="4" height="10" rx="2" fill="#fff"/>
  <path d="M22 34c0-5.2 3.4-8.4 8.6-8.4 2.8 0 5.2.9 6.7 2.7l-3.2 2.5c-.8-.9-1.9-1.5-3.4-1.5-2.6 0-4.3 1.8-4.3 4.8 0 3.1 1.7 4.9 4.3 4.9 1.6 0 2.7-.5 3.6-1.6l3.1 2.5c-1.6 1.9-4 2.9-6.9 2.9-5.2 0-8.5-3.3-8.5-8.8Z" fill="#1d4ed8"/>
  <path d="M39.2 31.2h-4v-3.6h12.4v3.6h-4v11h-4.4z" fill="#16a34a" opacity="0.92"/>
</svg>
